<?xml version="1.0" standalone="no"?>
<!DOCTYPE svg PUBLIC "-//W3C//DTD SVG 20010904//EN"
 "http://www.w3.org/TR/2001/REC-SVG-20010904/DTD/svg10.dtd">
<svg version="1.0" xmlns="http://www.w3.org/2000/svg"
 width="1024.000000pt" height="1024.000000pt" viewBox="0 0 1024.000000 1024.000000"
 preserveAspectRatio="xMidYMid meet">

<g transform="translate(0.000000,1024.000000) scale(0.100000,-0.100000)"
fill="#000000" stroke="none">
<path d="M0 5120 l0 -5120 5120 0 5120 0 0 5120 0 5120 -5120 0 -5120 0 0
-5120z m5250 3360 c203 -42 253 -59 390 -136 63 -36 166 -83 230 -106 187 -66
245 -124 244 -244 -1 -118 -101 -276 -213 -338 -90 -48 -156 -56 -531 -63
-404 -7 -457 -2 -575 56 -137 68 -213 162 -252 315 -20 78 -13 196 15 260 54
120 215 263 323 286 71 15 203 4 369 -30z m-740 -39 c0 -6 -4 -13 -10 -16 -24
-15 -94 -151 -111 -217 -33 -124 -19 -306 30 -389 l21 -35 -49 -52 c-27 -29
-60 -74 -73 -100 -50 -101 -19 -293 69 -430 52 -83 218 -276 287 -336 32 -28
96 -85 140 -127 45 -41 116 -101 159 -133 44 -32 113 -91 155 -130 43 -39 123
-104 180 -145 56 -40 131 -99 167 -132 78 -70 123 -86 203 -70 88 18 152 70
152 126 0 19 8 19 -92 -5 -46 -11 -111 -20 -145 -20 -59 0 -63 2 -92 37 -17
21 -30 42 -28 48 7 19 252 135 311 147 l60 11 32 -37 c36 -42 53 -98 61 -202
8 -100 -12 -193 -64 -304 -73 -157 -120 -192 -290 -215 -60 -9 -171 -24 -248
-35 -229 -33 -391 -48 -557 -54 -193 -8 -299 -25 -424 -72 -106 -40 -146 -61
-213 -111 -24 -18 -52 -33 -63 -33 -31 0 -137 59 -185 103 -55 50 -129 163
-156 237 -30 79 -29 212 0 305 31 97 103 177 210 233 120 62 200 83 338 89
l120 5 105 -81 c58 -45 155 -122 217 -171 90 -73 292 -210 308 -210 2 0 50
-27 107 -60 97 -57 193 -100 221 -100 22 0 57 40 57 64 0 19 -14 31 -72 61
-40 21 -102 61 -138 90 -36 29 -105 78 -155 110 -89 56 -222 159 -340 260 -33
29 -134 112 -225 185 -300 240 -528 465 -616 606 -89 143 -131 313 -121 490 8
134 27 207 92 340 43 90 69 127 129 191 156 165 291 245 479 283 58 11 57 11
57 1z m-1387 -602 c44 -12 101 -59 123 -101 22 -43 28 -2320 6 -2386 -52 -157
-260 -190 -344 -54 l-23 37 3 1189 c2 997 5 1193 17 1216 19 37 80 88 113 96
15 3 32 7 37 9 18 6 29 5 68 -6z m4285 -5 c20 -8 50 -27 65 -42 63 -60 59 28
59 -1266 -1 -650 -1 -1186 -1 -1193 -1 -18 -60 -82 -90 -97 -43 -22 -106 -28
-150 -15 -45 13 -130 95 -132 126 0 10 0 544 1 1187 1 739 5 1178 11 1195 23
59 110 120 172 121 15 0 44 -7 65 -16z m-719 -128 c21 -25 -9 -64 -86 -116
-40 -27 -90 -52 -111 -56 -20 -4 -40 -8 -44 -11 -15 -8 6 -33 52 -63 55 -35
158 -137 179 -177 12 -24 12 -28 -5 -40 -33 -24 -41 -20 -170 97 -34 30 -80
65 -103 78 l-41 23 0 -93 c0 -112 -12 -160 -47 -188 -48 -37 -50 -32 -55 128
-3 83 -11 161 -18 180 -9 24 -33 47 -84 80 -39 26 -75 50 -80 54 -13 9 42 91
57 84 7 -2 48 -19 92 -37 130 -53 218 -42 390 49 48 25 59 26 74 8z m-2105
-125 c32 -27 78 -57 102 -66 24 -9 44 -20 44 -24 0 -4 -68 -16 -152 -26 -148
-18 -151 -18 -165 1 -18 24 -11 79 14 106 16 18 80 57 93 57 3 0 31 -21 64
-48z m-1995 -95 c36 -19 90 -80 106 -120 9 -24 11 -229 9 -858 -4 -907 0 -858
-63 -911 -98 -82 -241 -47 -304 73 -28 54 -28 57 -21 160 5 58 8 425 9 816 l0
710 30 49 c51 82 159 119 234 81z m5414 -23 c23 -16 53 -49 67 -73 23 -41 25
-55 24 -155 -1 -60 -2 -427 -4 -813 -3 -701 -3 -704 -24 -745 -32 -61 -104
-107 -168 -107 -27 0 -62 7 -77 14 -35 19 -89 79 -96 109 -3 12 -4 398 -3 858
l3 836 29 37 c61 80 167 97 249 39z m-3133 -147 c11 -20 33 -44 48 -55 32 -23
38 -20 -111 -56 -59 -14 -133 -35 -165 -46 -31 -11 -64 -22 -72 -25 -17 -5
-110 112 -110 139 0 20 35 31 180 56 63 12 129 25 145 29 38 11 58 1 85 -42z
m252 -242 c35 -25 64 -49 66 -53 1 -5 -57 -25 -130 -45 -73 -20 -160 -50 -194
-67 -34 -16 -66 -29 -70 -29 -5 0 -36 25 -69 55 -57 52 -59 56 -41 70 27 21
254 91 368 114 5 0 36 -20 70 -45z m-2969 -565 c4 -237 4 -436 1 -441 -7 -11
-120 -1 -146 13 -16 9 -18 26 -18 134 l0 125 -100 0 c-120 0 -145 10 -189 76
-22 34 -31 60 -32 93 -4 115 7 145 72 189 32 22 40 23 142 16 l108 -7 -8 54
c-12 85 -9 159 8 170 7 5 46 9 85 9 l71 0 6 -431z m6265 419 c8 -8 12 -48 12
-112 l0 -101 115 3 c104 3 118 1 144 -18 41 -28 54 -77 49 -175 -4 -71 -8 -88
-32 -119 -33 -44 -53 -49 -184 -50 l-102 -1 2 -140 3 -140 -75 -6 c-41 -3 -78
-5 -82 -3 -3 2 -4 196 -2 432 2 235 4 430 4 435 0 12 135 8 148 -5z m-3048
-70 c32 -20 50 -37 48 -47 -2 -10 -40 -29 -108 -52 -124 -42 -217 -83 -242
-106 -18 -16 -22 -13 -78 42 -33 33 -60 63 -60 67 0 4 14 15 32 24 52 27 291
103 325 104 19 0 52 -13 83 -32z m-1360 -162 c8 -12 40 -45 72 -75 32 -30 58
-57 58 -61 0 -4 -32 -15 -71 -25 -112 -27 -205 -69 -263 -119 l-54 -46 -144 0
-143 0 1 173 c0 94 1 175 2 179 1 4 120 4 265 1 251 -6 263 -7 277 -27z m2950
-144 l0 -174 -152 4 c-84 2 -216 1 -293 -1 l-141 -5 -49 48 c-49 46 -203 152
-364 250 -45 27 -81 51 -81 53 0 3 243 3 540 1 l540 -3 0 -173z m-1327 100
c67 -36 77 -50 49 -72 -12 -10 -53 -28 -90 -41 -37 -12 -118 -42 -181 -66 -63
-24 -114 -42 -115 -40 -1 1 -25 28 -55 59 l-54 56 54 28 c79 40 301 113 324
107 11 -3 41 -17 68 -31z m572 -331 c128 -62 272 -207 340 -341 67 -132 87
-250 65 -380 -18 -108 -42 -165 -120 -282 -86 -131 -150 -190 -260 -240 -47
-22 -100 -46 -118 -54 -55 -25 -273 -63 -521 -89 -643 -68 -860 -109 -1016
-193 -75 -40 -100 -75 -79 -110 20 -31 73 -25 190 21 125 51 315 100 451 118
311 41 513 -156 513 -501 0 -54 -3 -118 -6 -143 l-7 -47 -63 128 c-75 151
-137 232 -222 289 -77 52 -126 66 -218 66 -86 -1 -144 -17 -334 -93 -188 -75
-273 -93 -399 -88 -89 3 -105 7 -174 41 -191 94 -288 304 -246 533 21 117 108
251 213 330 156 118 309 154 792 189 121 8 300 26 399 40 99 13 225 29 280 34
171 18 212 37 275 131 60 89 106 195 141 328 28 107 30 126 24 217 -4 55 -9
108 -11 118 -8 27 21 21 111 -22z m-2416 -3006 c63 -15 168 -61 204 -89 18
-14 15 -19 -38 -96 -32 -44 -60 -79 -64 -77 -87 47 -154 70 -217 75 -109 7
-154 -24 -154 -106 0 -57 34 -81 176 -127 200 -64 270 -109 313 -205 28 -61
28 -159 0 -220 -67 -150 -256 -222 -455 -175 -96 22 -160 55 -308 157 -6 4 22
39 66 82 l76 76 38 -36 c74 -68 189 -109 282 -102 47 4 60 10 84 37 33 37 37
87 11 120 -11 13 -68 38 -151 66 -160 54 -201 74 -257 127 -110 101 -123 260
-30 381 82 108 252 152 424 112z m-1585 -25 c94 -29 144 -71 186 -155 33 -66
35 -74 35 -175 0 -95 -3 -110 -27 -155 -70 -132 -209 -191 -431 -183 l-97 3
-2 -160 -3 -160 -80 -3 c-44 -2 -90 0 -102 3 l-23 5 0 394 c0 216 3 441 7 499
l6 107 232 0 c206 0 241 -2 299 -20z m5147 0 c76 -23 129 -64 167 -128 23 -41
27 -58 27 -127 0 -70 -3 -85 -28 -122 -15 -24 -46 -55 -68 -69 l-42 -26 40
-18 c78 -35 126 -118 126 -220 1 -130 -74 -231 -201 -270 -70 -22 -225 -26
-449 -13 l-113 6 0 504 0 503 239 0 c210 0 247 -2 302 -20z m-837 -101 c3 -34
6 -86 6 -115 l0 -54 90 0 90 0 0 -85 c0 -81 -1 -85 -24 -91 -14 -3 -54 -4 -89
-2 l-65 3 -7 -78 c-8 -94 2 -222 21 -258 17 -34 52 -42 109 -28 25 6 47 10 49
8 2 -2 7 -41 10 -85 l7 -82 -71 -17 c-42 -10 -88 -15 -112 -12 -89 12 -180
116 -193 221 -4 28 -5 114 -3 192 l3 140 -51 -4 -51 -4 -6 47 c-4 26 -7 67 -7
91 l0 44 50 0 50 0 0 109 0 110 53 4 c28 2 70 4 93 5 l41 2 7 -61z m2207 -49
c1 -55 2 -106 3 -112 1 -9 26 -14 82 -16 94 -3 94 -2 94 -109 l0 -63 -91 0
-91 0 4 -166 c3 -162 3 -166 28 -186 24 -20 51 -20 116 -2 20 5 22 1 28 -63 4
-37 9 -75 12 -84 3 -12 -9 -20 -54 -33 -143 -40 -235 -8 -288 101 -29 58 -29
59 -29 246 l0 188 -51 -2 c-28 -1 -56 1 -62 5 -8 5 -12 37 -12 89 l0 82 60 -3
60 -4 0 110 0 111 28 4 c15 2 57 5 95 6 l67 1 1 -100z m-3306 -144 c96 -46
148 -94 187 -174 30 -60 33 -75 33 -157 0 -70 -5 -103 -23 -147 -62 -154 -246
-259 -393 -224 -159 37 -269 142 -306 290 -14 58 -14 77 -4 133 30 163 120
262 281 309 66 19 143 9 225 -30z m-2712 -74 c44 -94 102 -244 128 -329 14
-51 24 -54 33 -12 5 27 56 159 144 374 16 39 34 70 40 69 7 -1 50 -2 97 -2 71
-2 85 -5 85 -18 0 -9 -24 -73 -54 -143 -200 -468 -331 -759 -354 -791 -42 -57
-172 -65 -276 -17 -31 14 -56 30 -56 36 0 5 11 31 25 57 14 26 25 58 25 71 l0
24 25 -20 c14 -11 40 -23 56 -26 40 -9 63 12 101 92 l29 62 -29 58 c-16 32
-55 119 -87 193 -32 74 -69 159 -82 189 -43 94 -93 215 -93 226 0 6 36 9 99 7
l98 -3 46 -97z m1935 83 c71 -33 145 -110 173 -182 32 -79 34 -242 4 -322 -26
-72 -100 -152 -165 -180 -109 -47 -196 -36 -281 35 -23 19 -45 34 -51 34 -7 0
-8 -65 -3 -195 l7 -195 -95 0 c-69 0 -98 4 -106 14 -13 15 -15 335 -4 764 l6
242 92 0 93 0 -2 -56 c-1 -30 0 -56 1 -58 2 -1 22 15 45 37 90 85 190 107 286
62z m1541 -47 c-4 -40 -8 -83 -8 -95 -1 -20 -6 -23 -43 -23 -137 0 -198 -61
-198 -198 0 -38 -3 -130 -7 -206 l-6 -137 -91 3 -91 3 -3 115 c-2 63 0 224 3
358 l7 242 94 0 94 0 0 -60 c0 -33 2 -60 5 -60 2 0 24 21 47 47 50 54 106 82
163 83 l41 0 -7 -72z m1970 37 c75 -38 165 -126 199 -194 23 -48 27 -68 27
-146 0 -77 -4 -98 -27 -148 -83 -176 -269 -266 -430 -207 -119 43 -188 106
-240 217 -25 52 -30 77 -30 136 0 138 51 240 157 312 73 50 126 65 215 62 58
-3 87 -10 129 -32z"/>
<path d="M5223 8215 c-86 -52 -107 -167 -44 -245 65 -81 134 -100 218 -59 103
50 131 181 57 269 -37 43 -75 60 -136 60 -39 0 -64 -7 -95 -25z"/>
<path d="M5753 8015 c-24 -17 -39 -71 -28 -105 7 -21 59 -60 82 -60 7 0 28 14
48 31 27 24 35 39 35 65 0 69 -81 109 -137 69z"/>
<path d="M4010 7918 c-46 -31 -76 -87 -95 -177 -28 -135 -15 -206 44 -230 24
-10 34 -10 60 3 39 21 45 33 65 135 10 47 28 112 42 145 29 71 30 87 7 115
-28 34 -81 37 -123 9z"/>
<path d="M3980 6088 c-49 -34 -74 -90 -78 -176 -4 -63 -1 -77 19 -107 45 -66
117 -82 168 -39 36 30 48 68 57 187 l7 87 -37 35 c-45 42 -87 46 -136 13z"/>
<path d="M4601 5899 c-113 -10 -145 -23 -162 -67 -14 -37 3 -70 46 -88 36 -15
168 -19 237 -8 78 13 116 95 66 141 -31 28 -64 32 -187 22z"/>
<path d="M6253 5804 c-24 -37 -30 -291 -8 -334 17 -34 60 -51 95 -38 66 24
100 100 100 220 0 118 -43 178 -126 178 -36 0 -47 -5 -61 -26z"/>
<path d="M5730 5350 c-25 -5 -71 -11 -102 -15 -102 -11 -141 -87 -80 -153 24
-26 38 -31 97 -37 88 -10 201 0 231 19 13 9 28 33 35 55 9 32 9 44 -6 75 -29
61 -72 74 -175 56z"/>
<path d="M5050 5301 c-91 -19 -124 -72 -77 -125 20 -24 32 -27 145 -37 142
-12 179 -4 205 40 23 39 21 73 -4 105 -20 25 -23 26 -127 25 -59 -1 -123 -4
-142 -8z"/>
<path d="M4560 5211 c-19 -4 -45 -13 -56 -19 -28 -15 -74 -69 -74 -87 0 -28
22 -62 52 -80 30 -17 33 -17 127 5 124 29 137 34 155 63 28 42 31 82 7 106
-18 18 -32 21 -98 20 -43 -1 -94 -4 -113 -8z"/>
<path d="M4239 4973 c-42 -5 -71 -32 -88 -82 -24 -72 -5 -167 37 -190 40 -21
79 -13 103 20 30 43 68 138 69 171 0 32 -45 89 -68 86 -10 -1 -33 -3 -53 -5z"/>
<path d="M1870 2959 l0 -162 119 5 c134 6 169 19 208 78 30 44 31 121 3 168
-33 54 -86 72 -217 72 l-113 0 0 -161z"/>
<path d="M7004 3089 c3 -17 6 -69 6 -115 l0 -84 116 0 c130 0 169 12 197 59
38 65 9 141 -61 161 -20 5 -88 10 -151 10 l-113 0 6 -31z"/>
<path d="M7067 2713 l-69 -4 4 -114 3 -115 127 0 c141 0 195 14 222 55 23 35
20 97 -6 130 -41 53 -74 58 -281 48z"/>
<path d="M5214 2839 c-18 -5 -48 -27 -67 -48 -79 -88 -52 -237 53 -291 98 -50
199 4 236 126 18 61 5 111 -43 164 -48 54 -107 70 -179 49z"/>
<path d="M4433 2841 c-45 -11 -80 -36 -104 -74 -17 -27 -20 -45 -16 -109 3
-65 8 -82 31 -112 35 -47 74 -66 131 -66 82 0 133 44 161 137 41 137 -68 257
-203 224z"/>
<path d="M7934 2821 c-53 -32 -78 -77 -82 -148 -8 -114 55 -193 152 -193 54 0
89 16 128 57 105 111 32 303 -116 303 -32 0 -62 -7 -82 -19z"/>
</g>
</svg>
